<svg width="22" height="23" viewBox="0 0 22 23" fill="none" xmlns="http://www.w3.org/2000/svg">
<circle cx="11" cy="12" r="10.5" fill="#5CA1DA" stroke="#FF4712"/>
<path d="M5.495 11.72C5.495 10.68 5.72 9.755 6.17 8.945C6.62 8.125 7.245 7.49 8.045 7.04C8.855 6.58 9.77 6.35 10.79 6.35C12.04 6.35 13.11 6.68 14 7.34C14.89 8 15.485 8.9 15.785 10.04H12.965C12.755 9.6 12.455 9.265 12.065 9.035C11.685 8.805 11.25 8.69 10.76 8.69C9.97 8.69 9.33 8.965 8.84 9.515C8.35 10.065 8.105 10.8 8.105 11.72C8.105 12.64 8.35 13.375 8.84 13.925C9.33 14.475 9.97 14.75 10.76 14.75C11.25 14.75 11.685 14.635 12.065 14.405C12.455 14.175 12.755 13.84 12.965 13.4H15.785C15.485 14.54 14.89 15.44 14 16.1C13.11 16.75 12.04 17.075 10.79 17.075C9.77 17.075 8.855 16.85 8.045 16.4C7.245 15.94 6.62 15.305 6.17 14.495C5.72 13.685 5.495 12.76 5.495 11.72Z" fill="#FF4B26"/>
</svg>
