<svg width="29" height="22" viewBox="0 0 29 22" fill="none" xmlns="http://www.w3.org/2000/svg">
<path d="M28.6758 6.8427H20.723V7.98782H28.4348V14.0765H20.723C20.723 18.1745 17.3921 21.4917 13.2942 21.4742L12.2891 21.4702V5.12053C12.2891 2.29254 14.5816 0 17.4096 0H28.6758V6.8427Z" fill="#1F2B3F"/>
<path d="M9.0389 6.02562H11.2982C11.2982 2.69773 13.9969 0 17.3248 0H20.3371V4.61147C17.011 4.68905 14.3385 7.40833 14.3385 10.7531C14.3385 14.0309 16.906 16.7077 20.1391 16.8868C19.4517 19.5293 17.0502 21.4802 14.1925 21.4802H11.2982V14.5615H9.0389C9.0389 18.3824 5.94112 21.4802 2.12022 21.4802H0V6.14463C0 2.75104 2.75205 0 6.14563 0H9.0389V6.02562Z" fill="url(#paint0_linear_123_101)"/>
<defs>
<linearGradient id="paint0_linear_123_101" x1="10.1685" y1="0" x2="10.1685" y2="21.4802" gradientUnits="userSpaceOnUse">
<stop stop-color="#5C7EB6"/>
<stop offset="1" stop-color="#7EAFFF"/>
</linearGradient>
</defs>
</svg>
