<svg width="141" height="23" viewBox="0 0 141 23" fill="none" xmlns="http://www.w3.org/2000/svg">
<path d="M29.676 7.84264H21.7232V8.98776H29.435V15.0764H21.7232C21.7232 19.1744 18.3923 22.4916 14.2944 22.4741L13.2893 22.4701V6.12047C13.2893 3.29248 15.5818 0.999939 18.4098 0.999939H29.676V7.84264Z" fill="#1F2B3F"/>
<path d="M10.0389 7.02556H12.2982C12.2982 3.69767 14.9969 0.999939 18.3248 0.999939H21.3371V5.61141C18.011 5.68899 15.3385 8.40827 15.3385 11.753C15.3385 15.0308 17.906 17.7076 21.1391 17.8867C20.4517 20.5292 18.0502 22.4801 15.1925 22.4801H12.2982V15.5614H10.0389C10.0389 19.3823 6.94112 22.4801 3.12022 22.4801H1V7.14457C1 3.75098 3.75205 0.999939 7.14563 0.999939H10.0389V7.02556Z" fill="url(#paint0_linear_44_171)"/>
<path d="M135.372 22.264C134.625 22.264 133.957 22.0825 133.37 21.7195C132.783 21.3566 132.324 20.8548 131.993 20.2142C131.673 19.5737 131.513 18.8477 131.513 18.0364C131.513 17.225 131.678 16.5044 132.009 15.8745C132.34 15.2339 132.799 14.7322 133.386 14.3692C133.984 13.9955 134.657 13.8087 135.404 13.8087C136.013 13.8087 136.541 13.9261 136.989 14.161C137.448 14.3852 137.811 14.7055 138.078 15.1218V10.5419H140V22.0718H138.271L138.078 20.9028C137.908 21.1377 137.699 21.3619 137.454 21.5754C137.208 21.7783 136.915 21.9437 136.573 22.0718C136.231 22.2 135.831 22.264 135.372 22.264ZM135.772 20.5986C136.231 20.5986 136.637 20.4918 136.989 20.2783C137.342 20.0541 137.614 19.7498 137.806 19.3655C137.998 18.9812 138.094 18.5381 138.094 18.0364C138.094 17.5346 137.998 17.0915 137.806 16.7072C137.614 16.3229 137.342 16.0239 136.989 15.8104C136.637 15.5969 136.231 15.4902 135.772 15.4902C135.335 15.4902 134.94 15.5969 134.587 15.8104C134.235 16.0239 133.957 16.3229 133.755 16.7072C133.562 17.0915 133.466 17.5346 133.466 18.0364C133.466 18.5381 133.562 18.9812 133.755 19.3655C133.957 19.7498 134.235 20.0541 134.587 20.2783C134.94 20.4918 135.335 20.5986 135.772 20.5986Z" fill="url(#paint1_linear_44_171)"/>
<path d="M126.087 22.264C125.286 22.264 124.582 22.0932 123.973 21.7516C123.365 21.3993 122.89 20.9082 122.548 20.2783C122.206 19.6484 122.036 18.9225 122.036 18.1004C122.036 17.2464 122.201 16.499 122.532 15.8585C122.874 15.2179 123.349 14.7162 123.957 14.3532C124.577 13.9902 125.292 13.8087 126.103 13.8087C126.893 13.8087 127.582 13.9849 128.169 14.3372C128.756 14.6895 129.21 15.1646 129.53 15.7624C129.85 16.3496 130.011 17.0115 130.011 17.7481C130.011 17.8549 130.011 17.9723 130.011 18.1004C130.011 18.2285 130 18.362 129.979 18.5008H123.413V17.2677H128.073C128.052 16.6805 127.854 16.2215 127.48 15.8905C127.107 15.5489 126.642 15.3781 126.087 15.3781C125.692 15.3781 125.329 15.4688 124.998 15.6503C124.667 15.8318 124.406 16.104 124.214 16.467C124.021 16.8193 123.925 17.2677 123.925 17.8122V18.2766C123.925 18.7784 124.016 19.2107 124.198 19.5737C124.39 19.9367 124.646 20.2143 124.966 20.4064C125.297 20.5879 125.665 20.6787 126.071 20.6787C126.52 20.6787 126.888 20.5826 127.176 20.3904C127.475 20.1982 127.694 19.942 127.833 19.6217H129.786C129.637 20.1235 129.391 20.5772 129.05 20.9829C128.708 21.3779 128.286 21.6929 127.785 21.9277C127.283 22.1519 126.717 22.264 126.087 22.264Z" fill="url(#paint2_linear_44_171)"/>
<path d="M108.391 22.0718V10.8621H110.665L114.252 18.1004L117.807 10.8621H120.097V22.0718H118.176V14.161L115.005 20.5025H113.5L110.313 14.177V22.0718H108.391Z" fill="url(#paint3_linear_44_171)"/>
<path d="M97.7949 22.0718L95.4248 14.0009H96.77L98.6116 20.8067H98.3714L100.373 14.0009H101.894L103.928 20.7907L103.672 20.8067L105.498 14.0009H106.859L104.505 22.0718H103.127L101.014 14.9617H101.286L99.172 22.0718H97.7949Z" fill="#1F2B3F"/>
<path d="M90.5693 22.264C89.822 22.264 89.1494 22.0932 88.5515 21.7516C87.9537 21.3993 87.484 20.9082 87.1423 20.2783C86.8007 19.6378 86.6299 18.8958 86.6299 18.0524C86.6299 17.1876 86.8007 16.4403 87.1423 15.8104C87.4946 15.1699 87.9697 14.6788 88.5676 14.3372C89.1761 13.9849 89.854 13.8087 90.6013 13.8087C91.37 13.8087 92.0479 13.9849 92.6351 14.3372C93.2329 14.6788 93.7027 15.1699 94.0443 15.8104C94.3966 16.4403 94.5728 17.1823 94.5728 18.0364C94.5728 18.8904 94.3966 19.6378 94.0443 20.2783C93.692 20.9082 93.2169 21.3993 92.6191 21.7516C92.0212 22.0932 91.338 22.264 90.5693 22.264ZM90.5853 21.111C91.0444 21.111 91.4714 20.9989 91.8664 20.7747C92.2614 20.5399 92.5817 20.1929 92.8272 19.7338C93.0728 19.2748 93.1956 18.709 93.1956 18.0364C93.1956 17.3531 93.0728 16.7873 92.8272 16.3389C92.5924 15.8798 92.2774 15.5382 91.8824 15.314C91.4981 15.0791 91.0711 14.9617 90.6013 14.9617C90.1529 14.9617 89.7259 15.0791 89.3202 15.314C88.9252 15.5382 88.6049 15.8798 88.3594 16.3389C88.1245 16.7873 88.0071 17.3531 88.0071 18.0364C88.0071 18.709 88.1245 19.2748 88.3594 19.7338C88.6049 20.1929 88.9199 20.5399 89.3042 20.7747C89.6992 20.9989 90.1262 21.111 90.5853 21.111Z" fill="#1F2B3F"/>
<path d="M83.4004 22.0718V10.5419H84.7456V22.0718H83.4004Z" fill="#1F2B3F"/>
<path d="M74.9106 22.0718V10.8621H81.7325V11.9671H76.2558V15.9065H80.9158V16.9954H76.2558V22.0718H74.9106Z" fill="#1F2B3F"/>
<path d="M71.7302 22.0719C71.2497 22.0719 70.8334 21.9971 70.4811 21.8477C70.1288 21.6982 69.8565 21.4473 69.6644 21.095C69.4829 20.732 69.3921 20.2463 69.3921 19.6378V15.1379H67.9829V14.0009H69.3921L69.5683 12.0472H70.7373V14.0009H73.0753V15.1379H70.7373V19.6378C70.7373 20.1395 70.8387 20.4811 71.0416 20.6626C71.2444 20.8335 71.602 20.9189 72.1145 20.9189H72.9792V22.0719H71.7302Z" fill="#1F2B3F"/>
<path d="M62.6323 22.0719V14.0009H63.8494L63.9455 15.5382C64.127 15.1752 64.3565 14.8656 64.6341 14.6094C64.9223 14.3532 65.2639 14.1557 65.6589 14.0169C66.0646 13.8781 66.5237 13.8087 67.0361 13.8087V15.2179H66.5397C66.1981 15.2179 65.8725 15.266 65.5629 15.3621C65.2533 15.4475 64.9757 15.5916 64.7301 15.7944C64.4953 15.9973 64.3084 16.2749 64.1697 16.6272C64.0415 16.9688 63.9775 17.3958 63.9775 17.9083V22.0719H62.6323Z" fill="#1F2B3F"/>
<path d="M56.5482 22.264C55.897 22.264 55.3525 22.1519 54.9148 21.9277C54.4771 21.6929 54.1515 21.3886 53.938 21.015C53.7244 20.6306 53.6177 20.2143 53.6177 19.7659C53.6177 19.2214 53.7565 18.7623 54.034 18.3887C54.3223 18.0043 54.7226 17.7161 55.2351 17.5239C55.7582 17.3211 56.3721 17.2197 57.0767 17.2197H59.2065C59.2065 16.7179 59.1264 16.3015 58.9663 15.9706C58.8168 15.629 58.5926 15.3727 58.2937 15.2019C58.0055 15.0311 57.6425 14.9457 57.2048 14.9457C56.6923 14.9457 56.2493 15.0738 55.8756 15.33C55.502 15.5863 55.2724 15.9652 55.187 16.467H53.8098C53.8739 15.8905 54.0661 15.4101 54.3863 15.0258C54.7173 14.6308 55.1337 14.3318 55.6354 14.129C56.1372 13.9155 56.6603 13.8087 57.2048 13.8087C57.9521 13.8087 58.5713 13.9475 59.0624 14.2251C59.5642 14.492 59.9378 14.871 60.1834 15.3621C60.4289 15.8425 60.5517 16.4136 60.5517 17.0755V22.0719H59.3506L59.2706 20.6466C59.1638 20.8708 59.025 21.0843 58.8542 21.2872C58.6941 21.4794 58.5019 21.6502 58.2777 21.7996C58.0535 21.9384 57.7973 22.0505 57.509 22.1359C57.2315 22.2213 56.9112 22.264 56.5482 22.264ZM56.7564 21.1271C57.1301 21.1271 57.4663 21.0523 57.7653 20.9029C58.0749 20.7427 58.3364 20.5292 58.5499 20.2623C58.7635 19.9847 58.9236 19.6805 59.0304 19.3495C59.1478 19.0186 59.2065 18.6716 59.2065 18.3086V18.2606H57.1888C56.6656 18.2606 56.2439 18.3246 55.9237 18.4527C55.6034 18.5702 55.3739 18.741 55.2351 18.9652C55.0963 19.1787 55.0269 19.4242 55.0269 19.7018C55.0269 19.9901 55.091 20.241 55.2191 20.4545C55.3578 20.668 55.5554 20.8335 55.8116 20.9509C56.0785 21.0683 56.3934 21.1271 56.7564 21.1271Z" fill="#1F2B3F"/>
<path d="M48.3592 22.264C47.6013 22.264 46.9287 22.0879 46.3415 21.7356C45.765 21.3833 45.3113 20.8922 44.9803 20.2623C44.6494 19.6217 44.4839 18.8798 44.4839 18.0364C44.4839 17.1823 44.644 16.4403 44.9643 15.8104C45.2953 15.1806 45.7543 14.6895 46.3415 14.3372C46.9393 13.9849 47.6226 13.8087 48.3913 13.8087C49.1813 13.8087 49.8485 13.9849 50.393 14.3372C50.9481 14.6895 51.3698 15.1539 51.6581 15.7304C51.957 16.2962 52.1065 16.9207 52.1065 17.604C52.1065 17.7108 52.1065 17.8229 52.1065 17.9403C52.1065 18.0577 52.1011 18.1912 52.0905 18.3406H45.4928V17.2997H50.7933C50.7613 16.5631 50.5158 15.9866 50.0567 15.5702C49.6083 15.1539 49.0425 14.9457 48.3592 14.9457C47.9002 14.9457 47.4731 15.0525 47.0781 15.266C46.6938 15.4688 46.3842 15.7731 46.1493 16.1788C45.9145 16.5738 45.797 17.0702 45.797 17.6681V18.1164C45.797 18.7784 45.9145 19.3335 46.1493 19.7819C46.3949 20.2303 46.7098 20.5666 47.0941 20.7908C47.4892 21.015 47.9109 21.1271 48.3592 21.1271C48.9251 21.1271 49.3895 21.0043 49.7524 20.7587C50.1261 20.5025 50.393 20.1609 50.5531 19.7338H51.8823C51.7542 20.2143 51.53 20.6466 51.2097 21.031C50.8894 21.4153 50.4891 21.7196 50.0087 21.9438C49.5389 22.1573 48.9891 22.264 48.3592 22.264Z" fill="#1F2B3F"/>
<path d="M41.1582 22.0718V10.8621H42.5034V22.0718H41.1582ZM34 22.0718V10.8621H35.3452V22.0718H34ZM35.0889 16.9154V15.8104H41.4945V16.9154H35.0889Z" fill="#1F2B3F"/>
<defs>
<linearGradient id="paint0_linear_44_171" x1="11.1685" y1="0.999939" x2="11.1685" y2="22.4801" gradientUnits="userSpaceOnUse">
<stop stop-color="#5C7EB6"/>
<stop offset="1" stop-color="#7EAFFF"/>
</linearGradient>
<linearGradient id="paint1_linear_44_171" x1="32.7991" y1="16.6126" x2="141.257" y2="16.6126" gradientUnits="userSpaceOnUse">
<stop stop-color="#1F2B3F"/>
<stop offset="1" stop-color="#6184BF"/>
</linearGradient>
<linearGradient id="paint2_linear_44_171" x1="32.799" y1="16.6126" x2="141.257" y2="16.6126" gradientUnits="userSpaceOnUse">
<stop stop-color="#1F2B3F"/>
<stop offset="1" stop-color="#6184BF"/>
</linearGradient>
<linearGradient id="paint3_linear_44_171" x1="32.7991" y1="16.6126" x2="141.257" y2="16.6126" gradientUnits="userSpaceOnUse">
<stop stop-color="#1F2B3F"/>
<stop offset="1" stop-color="#6184BF"/>
</linearGradient>
</defs>
</svg>
