<svg width="723" height="151" viewBox="0 0 723 151" fill="none" xmlns="http://www.w3.org/2000/svg">
<path d="M31.2371 111.212C26.1198 111.212 21.5748 110.303 17.6021 108.485C13.6294 106.667 10.5321 104.075 8.31012 100.708C6.08812 97.3413 4.94345 93.335 4.87612 88.689H17.7031C17.7031 91.0457 18.2418 93.1667 19.3191 95.052C20.4638 96.87 22.0125 98.3177 23.9651 99.395C25.9851 100.472 28.4091 101.011 31.2371 101.011C33.6611 101.011 35.7485 100.641 37.4991 99.9C39.3171 99.092 40.6975 97.981 41.6401 96.567C42.6501 95.0857 43.1551 93.3687 43.1551 91.416C43.1551 89.194 42.6165 87.376 41.5391 85.962C40.5291 84.4807 39.1151 83.235 37.2971 82.225C35.4791 81.215 33.3918 80.3397 31.0351 79.599C28.6785 78.791 26.1871 77.9493 23.5611 77.074C17.9724 75.1887 13.7641 72.7983 10.9361 69.903C8.10812 66.9403 6.69412 63.0013 6.69412 58.086C6.69412 53.9787 7.67045 50.4437 9.62312 47.481C11.5758 44.5183 14.3028 42.229 17.8041 40.613C21.3728 38.9297 25.4801 38.088 30.1261 38.088C34.8395 38.088 38.9468 38.9297 42.4481 40.613C46.0168 42.2963 48.8111 44.653 50.8311 47.683C52.9185 50.6457 53.9958 54.2143 54.0631 58.389H41.1351C41.0678 56.6383 40.5965 55.0223 39.7211 53.541C38.8458 51.9923 37.5665 50.7467 35.8831 49.804C34.2671 48.794 32.2808 48.289 29.9241 48.289C27.9041 48.2217 26.0861 48.5583 24.4701 49.299C22.9214 49.9723 21.6758 50.9823 20.7331 52.329C19.8578 53.6083 19.4201 55.2243 19.4201 57.177C19.4201 59.0623 19.8241 60.6447 20.6321 61.924C21.5075 63.136 22.7531 64.1797 24.3691 65.055C25.9851 65.863 27.8705 66.6373 30.0251 67.378C32.1798 68.1187 34.5365 68.9267 37.0951 69.802C40.5965 70.9467 43.7611 72.3607 46.5891 74.044C49.4845 75.66 51.7738 77.781 53.4571 80.407C55.1404 83.033 55.9821 86.4333 55.9821 90.608C55.9821 94.244 55.0394 97.6443 53.1541 100.809C51.2688 103.906 48.5081 106.431 44.8721 108.384C41.2361 110.269 36.6911 111.212 31.2371 111.212ZM66.4538 132.22L78.8768 104.344H75.8468L55.5458 59.096H68.7768L83.9268 93.638L98.2688 59.096H111.096L79.2808 132.22H66.4538ZM112.797 110V59.096H123.503L124.412 67.58C125.961 64.6173 128.183 62.2607 131.078 60.51C133.973 58.7593 137.407 57.884 141.38 57.884C145.487 57.884 148.989 58.7593 151.884 60.51C154.779 62.1933 157.001 64.6847 158.55 67.984C160.166 71.2833 160.974 75.3907 160.974 80.306V110H148.854V81.417C148.854 77.175 147.911 73.9093 146.026 71.62C144.141 69.3307 141.346 68.186 137.643 68.186C135.219 68.186 133.031 68.7583 131.078 69.903C129.193 71.0477 127.678 72.731 126.533 74.953C125.456 77.1077 124.917 79.7337 124.917 82.831V110H112.797ZM183.65 111.212C179.475 111.212 176.008 110.505 173.247 109.091C170.486 107.677 168.433 105.792 167.086 103.435C165.739 101.078 165.066 98.5197 165.066 95.759C165.066 92.527 165.874 89.7327 167.49 87.376C169.173 85.0193 171.631 83.2013 174.863 81.922C178.095 80.5753 182.068 79.902 186.781 79.902H199.608C199.608 77.2087 199.238 74.9867 198.497 73.236C197.756 71.418 196.612 70.0713 195.063 69.196C193.514 68.3207 191.528 67.883 189.104 67.883C186.343 67.883 183.987 68.5227 182.034 69.802C180.081 71.014 178.869 72.8993 178.398 75.458H166.48C166.884 71.822 168.096 68.7247 170.116 66.166C172.136 63.54 174.796 61.52 178.095 60.106C181.462 58.6247 185.131 57.884 189.104 57.884C193.885 57.884 197.958 58.7257 201.325 60.409C204.692 62.025 207.25 64.3817 209.001 67.479C210.819 70.509 211.728 74.1787 211.728 78.488V110H201.426L200.214 101.819C199.541 103.166 198.665 104.411 197.588 105.556C196.578 106.701 195.4 107.711 194.053 108.586C192.706 109.394 191.158 110.034 189.407 110.505C187.724 110.976 185.805 111.212 183.65 111.212ZM186.377 101.617C188.33 101.617 190.047 101.28 191.528 100.607C193.077 99.8663 194.39 98.8563 195.467 97.577C196.612 96.2303 197.487 94.749 198.093 93.133C198.699 91.517 199.103 89.8 199.305 87.982V87.78H188.094C185.737 87.78 183.785 88.083 182.236 88.689C180.687 89.2277 179.576 90.0357 178.903 91.113C178.23 92.1903 177.893 93.436 177.893 94.85C177.893 96.264 178.23 97.476 178.903 98.486C179.576 99.496 180.553 100.27 181.832 100.809C183.111 101.348 184.626 101.617 186.377 101.617ZM217.608 132.22V59.096H228.415L229.728 66.469C230.805 64.9877 232.085 63.6073 233.566 62.328C235.115 60.9813 236.966 59.904 239.121 59.096C241.343 58.288 243.868 57.884 246.696 57.884C251.477 57.884 255.685 59.0623 259.321 61.419C263.024 63.7757 265.92 66.974 268.007 71.014C270.094 74.9867 271.138 79.5317 271.138 84.649C271.138 89.7663 270.061 94.345 267.906 98.385C265.819 102.358 262.923 105.489 259.22 107.778C255.584 110.067 251.409 111.212 246.696 111.212C242.858 111.212 239.491 110.505 236.596 109.091C233.768 107.61 231.479 105.522 229.728 102.829V132.22H217.608ZM244.171 100.708C246.999 100.708 249.524 100.035 251.746 98.688C253.968 97.3413 255.685 95.456 256.897 93.032C258.176 90.608 258.816 87.8137 258.816 84.649C258.816 81.417 258.176 78.589 256.897 76.165C255.685 73.741 253.968 71.8557 251.746 70.509C249.524 69.1623 246.999 68.489 244.171 68.489C241.276 68.489 238.717 69.1623 236.495 70.509C234.34 71.8557 232.623 73.741 231.344 76.165C230.132 78.589 229.526 81.3833 229.526 84.548C229.526 87.78 230.132 90.608 231.344 93.032C232.623 95.3887 234.34 97.274 236.495 98.688C238.717 100.035 241.276 100.708 244.171 100.708ZM296.134 111.212C291.623 111.212 287.684 110.505 284.317 109.091C281.018 107.61 278.392 105.59 276.439 103.031C274.554 100.405 273.443 97.4087 273.106 94.042H285.226C285.563 95.456 286.169 96.769 287.044 97.981C287.919 99.1257 289.098 100.035 290.579 100.708C292.128 101.381 293.946 101.718 296.033 101.718C298.053 101.718 299.703 101.449 300.982 100.91C302.261 100.304 303.204 99.5297 303.81 98.587C304.416 97.6443 304.719 96.6343 304.719 95.557C304.719 93.941 304.281 92.6953 303.406 91.82C302.531 90.9447 301.251 90.2713 299.568 89.8C297.952 89.2613 295.999 88.7563 293.71 88.285C291.286 87.8137 288.929 87.2413 286.64 86.568C284.418 85.8273 282.398 84.9183 280.58 83.841C278.829 82.7637 277.415 81.3833 276.338 79.7C275.328 78.0167 274.823 75.963 274.823 73.539C274.823 70.5763 275.597 67.9167 277.146 65.56C278.762 63.2033 281.051 61.3517 284.014 60.005C287.044 58.591 290.646 57.884 294.821 57.884C300.746 57.884 305.46 59.2643 308.961 62.025C312.53 64.7183 314.617 68.5227 315.223 73.438H303.709C303.372 71.5527 302.43 70.105 300.881 69.095C299.332 68.0177 297.279 67.479 294.72 67.479C292.094 67.479 290.074 67.984 288.66 68.994C287.313 69.9367 286.64 71.216 286.64 72.832C286.64 73.842 287.044 74.7847 287.852 75.66C288.727 76.468 289.973 77.175 291.589 77.781C293.205 78.3197 295.191 78.8583 297.548 79.397C301.319 80.1377 304.652 81.013 307.547 82.023C310.442 83.033 312.732 84.5143 314.415 86.467C316.098 88.4197 316.94 91.1803 316.94 94.749C317.007 97.981 316.166 100.843 314.415 103.334C312.732 105.825 310.341 107.778 307.244 109.192C304.147 110.539 300.443 111.212 296.134 111.212ZM345.466 111.212C340.416 111.212 335.972 110.135 332.134 107.98C328.296 105.758 325.3 102.661 323.145 98.688C320.991 94.7153 319.913 90.1367 319.913 84.952C319.913 79.5653 320.957 74.852 323.044 70.812C325.199 66.772 328.195 63.6073 332.033 61.318C335.939 59.0287 340.45 57.884 345.567 57.884C350.55 57.884 354.893 58.995 358.596 61.217C362.3 63.439 365.161 66.4353 367.181 70.206C369.201 73.9093 370.211 78.084 370.211 82.73C370.211 83.4033 370.211 84.144 370.211 84.952C370.211 85.76 370.144 86.6017 370.009 87.477H328.599V79.7H357.99C357.856 75.9967 356.61 73.1013 354.253 71.014C351.897 68.8593 348.968 67.782 345.466 67.782C342.975 67.782 340.686 68.3543 338.598 69.499C336.511 70.6437 334.861 72.3607 333.649 74.65C332.437 76.872 331.831 79.7 331.831 83.134V86.063C331.831 89.2277 332.404 91.9547 333.548 94.244C334.76 96.5333 336.376 98.284 338.396 99.496C340.484 100.641 342.807 101.213 345.365 101.213C348.193 101.213 350.516 100.607 352.334 99.395C354.22 98.183 355.6 96.567 356.475 94.547H368.797C367.855 97.7117 366.306 100.573 364.151 103.132C361.997 105.623 359.337 107.61 356.172 109.091C353.008 110.505 349.439 111.212 345.466 111.212Z" fill="#0A2540"/>
<path d="M374.736 110V39.3H389.078L411.702 84.952L434.124 39.3H448.567V110H436.447V60.106L416.449 100.102H406.955L386.856 60.207V110H374.736ZM479.275 111.212C474.225 111.212 469.781 110.135 465.943 107.98C462.105 105.758 459.109 102.661 456.954 98.688C454.8 94.7153 453.722 90.1367 453.722 84.952C453.722 79.5653 454.766 74.852 456.853 70.812C459.008 66.772 462.004 63.6073 465.842 61.318C469.748 59.0287 474.259 57.884 479.376 57.884C484.359 57.884 488.702 58.995 492.405 61.217C496.109 63.439 498.97 66.4353 500.99 70.206C503.01 73.9093 504.02 78.084 504.02 82.73C504.02 83.4033 504.02 84.144 504.02 84.952C504.02 85.76 503.953 86.6017 503.818 87.477H462.408V79.7H491.799C491.665 75.9967 490.419 73.1013 488.062 71.014C485.706 68.8593 482.777 67.782 479.275 67.782C476.784 67.782 474.495 68.3543 472.407 69.499C470.32 70.6437 468.67 72.3607 467.458 74.65C466.246 76.872 465.64 79.7 465.64 83.134V86.063C465.64 89.2277 466.213 91.9547 467.357 94.244C468.569 96.5333 470.185 98.284 472.205 99.496C474.293 100.641 476.616 101.213 479.174 101.213C482.002 101.213 484.325 100.607 486.143 99.395C488.029 98.183 489.409 96.567 490.284 94.547H502.606C501.664 97.7117 500.115 100.573 497.96 103.132C495.806 105.623 493.146 107.61 489.981 109.091C486.817 110.505 483.248 111.212 479.275 111.212ZM530.765 111.212C526.052 111.212 521.843 110.067 518.14 107.778C514.437 105.489 511.541 102.324 509.454 98.284C507.434 94.244 506.424 89.6653 506.424 84.548C506.424 79.4307 507.468 74.8857 509.555 70.913C511.642 66.873 514.538 63.7083 518.241 61.419C522.012 59.0623 526.254 57.884 530.967 57.884C534.805 57.884 538.138 58.6247 540.966 60.106C543.861 61.52 546.151 63.54 547.834 66.166V37.28H559.954V110H549.046L547.834 102.627C546.757 104.108 545.444 105.522 543.895 106.869C542.346 108.148 540.495 109.192 538.34 110C536.185 110.808 533.66 111.212 530.765 111.212ZM533.29 100.708C536.185 100.708 538.744 100.035 540.966 98.688C543.188 97.274 544.905 95.355 546.117 92.931C547.329 90.507 547.935 87.7127 547.935 84.548C547.935 81.3833 547.329 78.589 546.117 76.165C544.905 73.741 543.188 71.8557 540.966 70.509C538.744 69.1623 536.185 68.489 533.29 68.489C530.529 68.489 528.038 69.1623 525.816 70.509C523.594 71.8557 521.843 73.741 520.564 76.165C519.352 78.589 518.746 81.3833 518.746 84.548C518.746 87.7127 519.352 90.507 520.564 92.931C521.843 95.355 523.594 97.274 525.816 98.688C528.038 100.035 530.529 100.708 533.29 100.708Z" fill="url(#paint0_linear_30_616)"/>
<path d="M643.54 42.5H658.54" stroke="#007BFF" stroke-width="1.57"/>
<path d="M657.75 39.98V42.48" stroke="#007BFF" stroke-width="1.57"/>
<path d="M681.65 66.2168C682.158 66.2169 682.644 66.4187 683.003 66.7773C683.362 67.1361 683.563 67.6227 683.563 68.1299V83.4336C683.563 83.9408 683.362 84.4274 683.003 84.7861C682.644 85.1448 682.158 85.3466 681.65 85.3467H666.347V100.65C666.347 101.158 666.145 101.644 665.786 102.003C665.427 102.362 664.941 102.563 664.434 102.563H649.13C648.623 102.563 648.136 102.362 647.777 102.003C647.419 101.644 647.217 101.158 647.217 100.65V88.9238L669.924 66.2168H681.65ZM664.434 49C664.941 49.0001 665.427 49.2018 665.786 49.5605C666.145 49.9193 666.347 50.4058 666.347 50.9131V62.877L643.877 85.3467H631.913C631.406 85.3467 630.919 85.1448 630.561 84.7861C630.202 84.4274 630 83.9409 630 83.4336V68.1299C630 67.6226 630.202 67.1361 630.561 66.7773C630.919 66.4186 631.406 66.2168 631.913 66.2168H647.217V50.9131C647.217 50.4057 647.419 49.9193 647.777 49.5605C648.136 49.2018 648.623 49 649.13 49H664.434Z" fill="#007BFF"/>
<circle cx="680.5" cy="51.98" r="4.5" fill="#007BFF"/>
<path d="M691.5 74.3501H704.5" stroke="#007BFF" stroke-width="1.57"/>
<path d="M693.644 94.3906C695.382 92.6502 698.199 92.6522 699.938 94.3906C701.67 96.127 701.676 98.9413 699.938 100.682C698.389 102.228 695.989 102.384 694.257 101.176L683.678 111.755C683.531 111.901 683.332 111.984 683.126 111.984L658.944 112.005V142.188C661.027 142.559 662.609 144.367 662.609 146.556C662.609 149.012 660.619 151 658.163 151C655.705 151 653.715 149.012 653.715 146.556C653.715 144.366 655.297 142.559 657.38 142.188V110.43H658.944V110.435L682.8 110.414L693.149 100.066C691.941 98.33 692.101 95.9352 693.644 94.3906ZM678.772 9.87696C681.779 9.87696 684.212 12.3134 684.212 15.3174C684.212 15.6536 684.17 15.9785 684.11 16.2969C707.007 26.3162 722.04 48.9713 722.04 74.3359C722.04 99.7165 706.997 122.372 684.085 132.382C684.164 132.75 684.21 133.131 684.21 133.524C684.21 136.527 681.777 138.962 678.771 138.962C675.766 138.962 673.334 136.527 673.334 133.524C673.334 130.52 675.767 128.084 678.771 128.084C680.582 128.084 682.176 128.982 683.165 130.343C705.041 120.796 719.467 99.2933 719.773 75.1211H697V73.5527H719.773C719.629 62.1886 716.333 51.4312 710.639 42.2109L700.334 52.4922C700.186 52.6383 699.986 52.7207 699.778 52.7207H684.821C684.72 53.2901 684.51 53.822 684.214 54.2949C682.431 52.0096 680.365 49.9559 678.071 48.1836C678.761 47.745 679.577 47.4883 680.456 47.4883C682.641 47.4884 684.449 49.0727 684.821 51.1553H699.454L709.794 40.8369C703.424 31.1044 694.304 23.2126 683.272 18.373C682.293 19.8109 680.645 20.7568 678.774 20.7568C675.77 20.7566 673.338 18.3214 673.338 15.3193C673.338 12.3155 675.771 9.87913 678.772 9.87696ZM637.804 9.875C640.808 9.875 643.241 12.3122 643.241 15.3164C643.241 18.3185 640.808 20.7529 637.804 20.7529C636.048 20.7529 634.503 19.9066 633.51 18.6172C613.412 27.707 599.701 47.1243 597.798 69.0869C599.89 69.6288 601.478 71.3754 601.795 73.5488H622.556C622.527 74.0686 622.511 74.5915 622.505 75.1172H601.799C601.482 77.2927 599.894 79.0391 597.8 79.5811C598.247 84.7944 599.382 89.8463 601.083 94.6621L617.82 94.6816C618.026 94.6816 618.226 94.7649 618.374 94.9092L628.951 105.488C630.686 104.28 633.085 104.438 634.632 105.984C636.37 107.725 636.366 110.539 634.632 112.275C632.893 114.014 630.076 114.016 628.338 112.275C626.794 110.731 626.634 108.332 627.842 106.6L617.494 96.25L601.658 96.2324C607.37 111.085 618.737 123.39 633.623 130.085C634.622 128.873 636.115 128.082 637.806 128.082C640.81 128.082 643.243 130.516 643.243 133.522C643.243 136.525 640.81 138.96 637.806 138.96C634.802 138.96 632.367 136.525 632.367 133.522C632.367 133.014 632.46 132.532 632.589 132.067C611.708 122.63 597.493 102.545 595.557 79.6865C592.974 79.2632 591 77.0374 591 74.3379C591 71.6346 592.976 69.4077 595.561 68.9863C597.501 46.2066 611.705 26.0493 632.535 16.6016C632.432 16.1903 632.365 15.7652 632.365 15.3203C632.365 12.3162 634.8 9.87907 637.804 9.875ZM649.983 41.7158C648.136 42.0975 646.344 42.6278 644.617 43.292L633.803 43.2998L623.455 53.6475C624.663 55.3819 624.504 57.7787 622.959 59.3232C621.221 61.0636 618.404 61.0615 616.666 59.3232C614.932 57.5868 614.928 54.7727 616.666 53.0322C618.213 51.4858 620.611 51.3289 622.346 52.5371L632.923 41.959C633.071 41.8126 633.271 41.7295 633.477 41.7295L645.22 41.7188L649.983 41.7158ZM657.746 1.47585e-06C660.204 0.000221456 662.193 1.98813 662.193 4.44434C662.193 6.63359 660.612 8.44149 658.529 8.81543V41.0352C658.54 41.0356 658.55 41.0366 658.561 41.0371C658.55 41.0366 658.54 41.0366 658.529 41.0361V41.0352C658.408 41.0298 658.286 41.0267 658.164 41.0225C658.052 41.0187 657.94 41.0144 657.827 41.0117C657.552 41.0048 657.277 41 657 41C656.988 41 656.975 41 656.963 41V8.81348C654.882 8.43968 653.3 6.63176 653.3 4.44238C653.3 1.98405 655.288 -0.00197627 657.746 1.47585e-06Z" fill="#007BFF"/>
<defs>
<linearGradient id="paint0_linear_30_616" x1="379.633" y1="76.3099" x2="567" y2="76.0074" gradientUnits="userSpaceOnUse">
<stop stop-color="#0A2540"/>
<stop offset="1" stop-color="#007BFF"/>
</linearGradient>
</defs>
</svg>
